<svg preserveAspectRatio="none" width="100%" height="100%" overflow="visible" style="display: block;" viewBox="0 0 39.6576 39.3313" fill="none" xmlns="http://www.w3.org/2000/svg">
<g id="Group">
<path id="Vector" d="M38.0793 29.7093L29.2134 20.8302C29.0663 20.6904 28.8712 20.6125 28.6683 20.6125C28.4655 20.6125 28.2703 20.6904 28.1233 20.8302L26.365 22.5884L24.2947 20.5225L29.2925 15.4983C31.3804 15.3884 34.1628 15.3972 34.2859 15.3796C34.8046 15.3005 35.798 14.5005 39.1606 9.97743C39.254 9.84954 39.3062 9.69619 39.3101 9.53787V7.50271C39.3098 7.36722 39.2739 7.2342 39.206 7.11694C39.1381 6.99969 39.0406 6.90232 38.9233 6.83458C38.8061 6.76536 38.6725 6.72884 38.5365 6.72884C38.4004 6.72884 38.2668 6.76536 38.1497 6.83458L34.5936 8.94447C34.2903 9.04117 32.9584 9.35326 31.82 7.73128C30.5892 5.97304 31.1387 5.12908 31.9167 4.46534C33.0785 3.63536 34.2846 2.86938 35.5299 2.17084C35.6423 2.10517 35.7365 2.01249 35.8041 1.90119C35.8716 1.7899 35.9103 1.66351 35.9167 1.53348C35.9216 1.40363 35.8935 1.27466 35.8351 1.1586C35.7767 1.04253 35.6898 0.943155 35.5826 0.86974C35.4727 0.795015 32.7958 -0.993996 28.198 0.786224C24.6464 2.15765 24.1497 3.96425 24.1057 4.16644L23.3497 9.5071L18.3211 14.5401L13.8288 10.0346C14.0235 9.54489 14.1249 9.02309 14.1277 8.49611C14.1287 7.94882 14.0213 7.40675 13.8115 6.90125C13.6018 6.39574 13.2939 5.93683 12.9057 5.55106C12.8689 5.51248 12.8276 5.47853 12.7826 5.44996L5.17383 0.500509C5.02681 0.403212 4.85069 0.359693 4.67528 0.377314C4.49986 0.394936 4.33592 0.472617 4.21119 0.597213L1.05075 3.75765C0.926156 3.88238 0.848475 4.04632 0.830854 4.22174C0.813232 4.39715 0.856752 4.57327 0.954049 4.72029L5.91669 12.3159C5.94659 12.3599 5.98043 12.4011 6.01779 12.439C6.40267 12.8268 6.86089 13.1343 7.36575 13.3433C7.87061 13.5523 8.41202 13.6588 8.95844 13.6566C9.48678 13.6574 10.0104 13.5574 10.5013 13.362L14.9936 17.8675L9.49031 23.3708L4.21559 24.1181H4.15844C3.95625 24.1664 2.15405 24.6587 0.778225 28.2148C-0.980017 32.8126 0.778225 35.4851 0.866137 35.5994C0.938808 35.7056 1.03668 35.7921 1.15098 35.8511C1.26528 35.9102 1.39244 35.94 1.52108 35.9379C1.65041 35.9333 1.77642 35.8957 1.88718 35.8288C1.99795 35.7619 2.0898 35.6678 2.15405 35.5555C2.85317 34.3106 3.61912 33.1044 4.44855 31.9423C5.11229 31.1642 5.96943 30.6236 7.71888 31.8412C9.34526 32.9884 9.03757 34.3291 8.93207 34.6148L6.82218 38.1708C6.75185 38.2872 6.71382 38.4202 6.71198 38.5562C6.71015 38.6921 6.74459 38.8261 6.81176 38.9443C6.87892 39.0625 6.97639 39.1607 7.09411 39.2287C7.21183 39.2967 7.34556 39.3321 7.48152 39.3313H9.51669C9.67591 39.3284 9.83001 39.2745 9.95625 39.1774C14.5716 35.7664 15.3057 34.7818 15.3672 34.2851C15.3672 34.1796 15.3672 31.3972 15.4771 29.3137L20.9672 23.85L23.0595 25.9115L21.3013 27.6697C21.1574 27.8147 21.0767 28.0106 21.0767 28.2148C21.0767 28.419 21.1574 28.6149 21.3013 28.7598L30.1804 37.6346C31.1777 38.6304 32.5294 39.1897 33.9387 39.1897C35.348 39.1897 36.6997 38.6304 37.6969 37.6346L38.0969 37.2346C38.5916 36.7417 38.9841 36.156 39.2519 35.511C39.5197 34.8661 39.6576 34.1747 39.6576 33.4763C39.6576 32.778 39.5197 32.0866 39.2519 31.4416C38.9841 30.7967 38.5916 30.211 38.0969 29.7181L38.0793 29.7093ZM24.62 10.417C24.7367 10.2971 24.8121 10.1431 24.8354 9.97743L25.6134 4.5093C25.6617 4.38622 26.176 3.23897 28.7519 2.24117C30.2072 1.608 31.8139 1.40659 33.3804 1.66095C32.5252 2.15578 31.7017 2.70336 30.9145 3.30051C28.8002 5.1115 29.5562 7.19062 30.5584 8.61919C32.1277 10.8478 34.2903 10.7379 35.209 10.3774C35.2442 10.3774 37.7716 8.86974 37.7716 8.86974V9.3093C36.3299 11.2434 34.5936 13.3928 34.0046 13.8675C32.9936 13.8148 30.1804 13.9511 28.9189 14.0214C28.7283 14.0305 28.548 14.1104 28.4134 14.2456L23.209 19.4236L21.8903 18.1049L26.9101 13.0631C26.9919 12.9945 27.0585 12.9096 27.1057 12.8138C27.1529 12.7179 27.1796 12.6134 27.1842 12.5067C27.1887 12.3999 27.171 12.2935 27.1322 12.194C27.0933 12.0945 27.0342 12.0042 26.9585 11.9288C26.8828 11.8535 26.7923 11.7947 26.6926 11.7562C26.593 11.7178 26.4864 11.7005 26.3798 11.7055C26.2731 11.7105 26.1686 11.7376 26.073 11.7852C25.9774 11.8328 25.8927 11.8997 25.8244 11.9818L20.7914 17.0104L19.4112 15.6258L24.62 10.417ZM8.94526 12.1181C8.2766 12.1214 7.63251 11.8663 7.14746 11.406L2.58042 4.40381L4.85735 2.12688L11.8595 6.7071C12.3253 7.20525 12.5799 7.86443 12.5701 8.5463C12.5603 9.22818 12.2867 9.87974 11.8068 10.3642L10.8002 11.3708C10.5569 11.6145 10.2677 11.8076 9.94927 11.9389C9.63089 12.0702 9.28964 12.137 8.94526 12.1357V12.1181ZM14.1936 28.439C14.058 28.5715 13.9779 28.7506 13.9694 28.9401C13.8991 30.206 13.7628 33.0148 13.82 34.0258C13.3453 34.6148 11.1826 36.3555 9.25735 37.7972H8.81779C8.81779 37.7972 10.3123 35.2785 10.3387 35.2346C10.7123 34.3115 10.8266 32.1577 8.58042 30.584C7.15185 29.5818 5.06394 28.8258 3.25735 30.9401C2.66068 31.7276 2.11312 32.5511 1.61779 33.406C1.36305 31.839 1.56605 30.2318 2.2024 28.7774C3.2046 26.1796 4.35625 25.7005 4.47053 25.6346L9.96064 24.8566C10.1269 24.8352 10.2814 24.7594 10.4002 24.6412L16.0793 18.9533L17.4639 20.3335L11.9123 25.8895C11.8401 25.9603 11.7828 26.0448 11.7437 26.138C11.7045 26.2312 11.6844 26.3313 11.6844 26.4324C11.6844 26.5335 11.7045 26.6335 11.7437 26.7268C11.7828 26.82 11.8401 26.9044 11.9123 26.9752C11.9831 27.0474 12.0676 27.1047 12.1608 27.1439C12.254 27.183 12.3541 27.2032 12.4551 27.2032C12.5562 27.2032 12.6563 27.183 12.7495 27.1439C12.8427 27.1047 12.9272 27.0474 12.998 26.9752L18.5497 21.4236L19.8683 22.7423L14.1936 28.439ZM11.8112 12.5093L11.8903 12.439L12.8925 11.4368L12.9628 11.3577L25.2705 23.6653L24.1189 24.817L11.8112 12.5093ZM36.9936 36.1577L36.5936 36.562C35.8836 37.2685 34.9227 37.6651 33.9211 37.6651C32.9195 37.6651 31.9586 37.2685 31.2486 36.562L22.9189 28.2104L24.6771 26.4522L26.9189 24.2148L28.6771 22.4566L37.0288 30.8082C37.3791 31.161 37.6562 31.5796 37.8441 32.0399C38.032 32.5002 38.1271 32.9931 38.1238 33.4902C38.1205 33.9874 38.019 34.479 37.825 34.9368C37.6311 35.3946 37.3485 35.8095 36.9936 36.1577Z" fill="var(--fill-0, white)"/>
<path id="Vector_2" d="M28.1936 26.6544C28.1228 26.5822 28.0383 26.5249 27.9451 26.4857C27.8519 26.4466 27.7518 26.4264 27.6508 26.4264C27.5497 26.4264 27.4496 26.4466 27.3564 26.4857C27.2632 26.5249 27.1787 26.5822 27.1079 26.6544C26.9643 26.7985 26.8837 26.9937 26.8837 27.1972C26.8837 27.4007 26.9643 27.5959 27.1079 27.7401L33.7013 34.3335C33.7729 34.4051 33.8579 34.4618 33.9514 34.5006C34.0449 34.5393 34.1451 34.5592 34.2464 34.5592C34.3476 34.5592 34.4478 34.5393 34.5413 34.5006C34.6349 34.4618 34.7198 34.4051 34.7914 34.3335C34.863 34.2619 34.9198 34.1769 34.9585 34.0834C34.9972 33.9899 35.0172 33.8896 35.0172 33.7884C35.0172 33.6872 34.9972 33.587 34.9585 33.4934C34.9198 33.3999 34.863 33.3149 34.7914 33.2434L28.1936 26.6544Z" fill="var(--fill-0, white)"/>
</g>
</svg>
